<svg width="1024" height="1024" xmlns="http://www.w3.org/2000/svg" fill="none">
 <defs>
  <clipPath id="clip0">
   <rect id="svg_1" x="0" y="6.02789" fill="white" height="60.2791" width="78.3629"/>
  </clipPath>
 </defs>
 <g>
  <title>Layer 1</title>
  <path stroke="null" id="svg_5" fill="#ffaa56" d="m354.54784,537.20781l629.45898,0c5.02321,2.19733 16.57764,10.54956 22.60576,26.37455c7.53612,19.78124 28.84371,309.90132 -331.25174,250.5589c-283.33181,0 -349.44557,-8.79195 -346.93396,-13.18793c52.3097,-13.18662 58.85656,-65.93572 65.40341,-105.49821c6.54816,-39.56117 -39.28245,-158.24731 -39.28245,-158.24731z"/>
  <path stroke="null" id="svg_6" fill="#253D4E" d="m827.47917,265.97508c-8.26471,0 -14.96145,6.74689 -14.96145,15.06761l0,2.40735c0,8.32335 6.69675,15.06761 14.96145,15.06761c8.26471,0 14.96015,-6.74426 14.96015,-15.06761l0,-2.40735c0,-8.32335 -6.69544,-15.06761 -14.96015,-15.06761z"/>
  <path stroke="null" id="svg_7" fill="#253D4E" d="m866.33803,333.19717c-8.26471,0 -14.96145,6.74426 -14.96145,15.06761l0,2.40604c0,8.32204 6.69675,15.06761 14.96145,15.06761c8.26471,0 14.96145,-6.74426 14.96145,-15.06761l0,-2.40604c0,-8.32335 -6.69675,-15.06761 -14.96145,-15.06761z"/>
  <path stroke="null" id="svg_8" fill="#253D4E" d="m538.74487,319.04709l-1.10657,-2.13564c-3.82411,-7.37826 -12.86693,-10.23715 -20.18669,-6.3846c-7.32497,3.85124 -10.16373,12.95297 -6.33962,20.32992l1.10787,2.13564c2.66671,5.15074 7.87891,8.1002 13.27358,8.1002c2.33304,0 4.69997,-0.54999 6.9118,-1.7156c7.32497,-3.85124 10.16373,-12.95166 6.33962,-20.32992z"/>
  <path stroke="null" id="svg_9" fill="#253D4E" d="m604.08572,360.51944l-1.10657,-2.13564c-3.82411,-7.37826 -12.86563,-10.23715 -20.18669,-6.3846c-7.32497,3.85124 -10.16373,12.95297 -6.33962,20.32992l1.10657,2.13564c2.66801,5.15074 7.87891,8.1002 13.27489,8.1002c2.33304,0 4.69997,-0.5513 6.9118,-1.7156c7.32497,-3.85124 10.16373,-12.95297 6.33962,-20.32992z"/>
  <path stroke="null" id="svg_10" fill="#253D4E" d="m510.99208,660.29649l-44.50117,-44.81954c-5.84564,-5.88318 -15.31858,-5.88581 -21.1577,-0.00131c-5.84564,5.88449 -5.84564,15.42464 -0.00261,21.30782l44.50117,44.81823c2.92347,2.94422 6.74888,4.41435 10.5795,4.41435c3.82802,0 7.65864,-1.47014 10.5782,-4.41173c5.84564,-5.88449 5.84564,-15.42464 0.00261,-21.30782z"/>
  <path stroke="null" id="svg_11" fill="#253D4E" d="m643.21828,632.21684c-4.78991,-6.77839 -14.1286,-8.36535 -20.86445,-3.53621l-155.3103,111.35514c-6.73063,4.82652 -8.30251,14.23409 -3.5113,21.01248c2.91956,4.13083 7.52309,6.33079 12.2009,6.33079c3.00037,0 6.03202,-0.90834 8.66354,-2.79458l155.3103,-111.35514c6.73063,-4.82652 8.30251,-14.23409 3.5113,-21.01248z"/>
  <path stroke="null" id="svg_12" fill="#253D4E" d="m698.12431,654.94492c-4.7873,-6.77839 -14.1299,-8.36535 -20.86445,-3.53621l-59.61512,42.74429c-6.73324,4.82914 -8.30381,14.23541 -3.5113,21.0138c2.91826,4.13083 7.52178,6.33079 12.1996,6.33079c3.00037,0 6.03072,-0.90834 8.66484,-2.7972l59.61512,-42.74297c6.73324,-4.82652 8.30381,-14.23409 3.5113,-21.01248z"/>
  <path stroke="null" id="svg_13" fill="#253D4E" d="m1019.53686,586.57822c-4.83553,-6.75082 -14.18334,-8.27347 -20.88791,-3.4102l-4.98411,3.6189c0.02085,-1.29162 0.05083,-2.58193 0.05083,-3.87749c0,-14.37454 -5.55369,-27.89982 -15.66788,-38.11335c-10.11159,-10.15708 -23.54288,-15.75017 -37.81485,-15.75017l-4.42887,0c16.41993,-31.94927 24.75633,-70.42227 24.75633,-114.8349c0,-87.10179 -32.42018,-182.30902 -82.59234,-242.54927c-5.31256,-6.37541 -14.749,-7.21156 -21.0782,-1.85999c-6.32919,5.34763 -7.15814,14.85234 -1.84688,21.22775c45.92315,55.13545 75.59712,142.73997 75.59712,223.18151c0,46.35794 -9.89523,84.94252 -29.41068,114.8349l-29.62183,0l13.1628,-9.43645c6.73194,-4.82521 8.30251,-14.23409 3.50999,-21.01248c-4.7886,-6.77839 -14.12729,-8.36535 -20.86314,-3.53621l-47.39858,33.98515l-88.99452,0c8.96853,-45.75151 -0.37277,-96.86508 -27.47647,-149.15083c-19.40206,-37.41634 -46.95804,-73.62114 -78.65354,-104.29453c32.64697,-83.1626 86.67582,-136.36377 139.32048,-136.36377c15.89858,0 31.92229,4.6589 47.61885,13.85212c7.1438,4.17861 16.30263,1.73844 20.45518,-5.45435c4.15256,-7.19436 1.72828,-16.41777 -5.41553,-20.60045c-20.32485,-11.89946 -41.40696,-17.93254 -62.6585,-17.93254c-63.68947,0 -124.93251,55.11498 -163.01195,145.25943c-12.9699,-10.74776 -26.41161,-20.52025 -40.10488,-29.03655c-64.45195,-40.08753 -125.48254,-48.73773 -171.84493,-24.3623c-42.76377,22.50625 -70.15552,72.41221 -77.1325,140.52427c-0.8498,8.27741 5.12618,15.68061 13.34527,16.5325c8.23864,0.86764 15.57143,-5.16518 16.41602,-13.44127c5.91472,-57.72001 27.65764,-99.23831 61.22218,-116.90622c81.71647,-42.96481 216.67325,55.77864 273.91753,166.17162c25.46015,49.11707 33.29474,94.53649 23.38126,135.2042l-167.74451,0c-0.04301,0 -0.08211,0 -0.12382,0l-76.66719,0l-25.10954,-25.28639c-5.84434,-5.88318 -15.31597,-5.88318 -21.15901,0c-5.84304,5.88581 -5.84304,15.42464 0,21.30914l3.94793,3.97594l-41.0746,0c-16.66497,-38.14485 -27.61984,-81.94842 -31.01775,-124.44068c-0.66212,-8.29316 -7.86718,-14.49531 -16.11234,-13.81012c-8.23734,0.66681 -14.37494,7.93219 -13.71282,16.22666c2.75925,34.5312 9.83658,68.89175 20.76017,101.31881c-42.64125,-36.59333 -98.33973,-56.26037 -155.68567,-53.12452c-5.34645,0.29403 -10.13114,3.4417 -12.54239,8.25378c-22.50018,44.8668 -28.82547,95.51045 -19.49329,143.46979c0.08733,1.45439 0.37277,2.84971 0.83937,4.16233c2.9326,13.68279 7.16205,27.12144 12.65187,40.1256c-64.0393,10.00351 -120.90677,48.01578 -154.99293,104.64238c-2.77489,4.60862 -2.8905,10.35923 -0.30721,15.08336c24.1079,44.06085 62.10796,77.91473 106.75081,97.20374c1.19103,0.70357 2.43379,1.23518 3.71254,1.57777c24.65401,10.12296 51.24028,15.84206 78.5799,16.41042c1.49758,0.03282 2.97952,0.04725 4.47449,0.04725c10.64207,0 21.18508,-0.80989 31.57168,-2.33122c0.97753,-0.05776 1.94985,-0.18508 2.8935,-0.43185c43.97461,-7.04485 84.8563,-27.38265 117.13311,-57.93791c0.7325,0.11026 1.47412,0.18639 2.23659,0.18639l67.1356,0c8.26471,0 14.96145,-6.74426 14.96145,-15.06761c0,-8.32335 -6.69675,-15.06761 -14.96145,-15.06761l-42.95797,0c3.92577,-5.35944 7.64691,-10.90659 11.10998,-16.65982c0.10557,-0.1772 0.1916,-0.36228 0.28935,-0.5408c0.08993,-0.16277 0.19681,-0.31109 0.28023,-0.48042c34.84837,-69.52706 30.90435,-152.91806 -10.04121,-218.68052l67.44189,0l40.73311,41.02212c2.92217,2.94028 6.75279,4.41173 10.58081,4.41173c3.82802,0 7.65864,-1.47145 10.58081,-4.41173c5.84304,-5.88712 5.84304,-15.42596 0,-21.31045l-19.5741,-19.71167l40.60929,0l55.54468,55.93878c2.92347,2.94159 6.75279,4.41173 10.58081,4.41173c3.82802,0 7.65864,-1.47014 10.58081,-4.41173c5.84304,-5.88712 5.84304,-15.42464 0,-21.30914l-34.38306,-34.62833l142.9191,0c0.01694,0 0.03258,0.00394 0.05083,0.00394c0.01564,0 0.03128,-0.00394 0.04953,-0.00394l66.25061,0l-32.66261,23.41984c-6.73324,4.82521 -8.30381,14.23409 -3.5113,21.01248c2.91826,4.12951 7.52178,6.32947 12.2009,6.32947c2.99907,0 6.02942,-0.90702 8.66354,-2.79589l66.89969,-47.96722l79.44208,0c0.00912,0 0.01825,0.00131 0.02607,0.00131c0.01303,0 0.02216,-0.00131 0.03389,-0.00131l31.15851,0c6.294,0 12.22045,2.46905 16.65715,6.92278c4.44973,4.49442 6.90138,10.46293 6.90138,16.8029c0,9.07154 -0.56958,18.0092 -1.66962,26.78409l-109.85636,79.77472c-6.70066,4.86721 -8.21648,14.28397 -3.38487,21.03611c2.92608,4.08489 7.50354,6.25597 12.14747,6.25597c3.03296,0 6.09328,-0.9254 8.74044,-2.84708l81.65782,-59.29516c-16.31436,45.72132 -47.76091,84.22976 -88.23335,109.37833l-166.85039,-168.03424c-5.84434,-5.88187 -15.31597,-5.88187 -21.15901,0c-5.84304,5.88712 -5.84304,15.42596 0,21.31045l160.14582,161.28079c-21.68688,9.33013 -45.22846,15.0978 -69.89615,16.58894l-65.22615,-65.68633c-5.84043,-5.88318 -15.31467,-5.88449 -21.1577,0.00131c-5.84304,5.88449 -5.84304,15.42333 0.00261,21.30782l44.46337,44.77623l-146.4708,0l-24.00428,-24.17328c-5.84434,-5.88318 -15.31597,-5.88318 -21.15901,0c-5.84304,5.88581 -5.84304,15.42464 0,21.30914l2.84397,2.86415l-55.05591,0c-8.26471,0 -14.96145,6.74426 -14.96145,15.06761c0,8.32335 6.69675,15.06761 14.96145,15.06761l84.96579,0l33.74441,33.98515c2.92217,2.94159 6.75279,4.41173 10.58081,4.41173c3.82802,0 7.65864,-1.47014 10.58081,-4.41173c5.84304,-5.88712 5.84304,-15.42596 0,-21.30914l-12.5854,-12.67601l145.67053,0c37.7184,0 73.43612,-8.7762 105.26066,-24.39512l12.56715,12.65632c2.92217,2.94159 6.75279,4.41304 10.58081,4.41304c3.82802,0 7.65864,-1.47145 10.58081,-4.41304c5.84304,-5.88581 5.84304,-15.42464 0,-21.30914l-6.77495,-6.82302c53.94413,-35.76375 92.8447,-92.72769 104.91265,-159.02833l26.38946,-19.163c6.69935,-4.8659 8.21518,-14.28135 3.38356,-21.03349zm-670.75124,-14.40867c1.67745,2.58456 3.26496,5.21505 4.80946,7.86524l-37.8722,75.68064l-43.24341,-66.63798l30.26439,-66.01054c17.8745,13.33626 33.55151,29.85563 46.04176,49.10264zm-49.44618,113.38183l-82.48155,4.18333c-5.5602,-6.45942 -10.7333,-13.31788 -15.4411,-20.57407c-9.83788,-15.16212 -17.34533,-31.46753 -22.51582,-48.37938l77.58086,-1.27587l42.85761,66.04598zm-22.16912,-178.5943l-24.00428,52.354l-47.70878,-73.52138c25.22815,2.2564 49.58564,9.54934 71.71306,21.16737zm-96.77046,-4.69919l56.73075,87.426l-64.87294,1.06716c-4.10433,-29.4986 -1.43502,-59.85303 8.14219,-88.49317zm-7.73423,177.472c1.20302,1.98337 2.4334,3.95756 3.70159,5.91468c6.64722,10.24372 14.08168,19.80881 22.17303,28.67033c0.59043,0.77314 1.25515,1.48458 1.97983,2.12908c13.43911,14.33517 28.63908,26.73027 45.14113,36.93199l-78.7174,-1.62897l-37.1122,-62.5124c13.74267,-4.77926 28.09936,-7.9965 42.83402,-9.50471zm-70.48867,21.64517l29.46751,49.63819l-87.23066,-1.80617c16.07454,-19.77205 35.74183,-35.97508 57.76315,-47.83202zm9.60119,134.65027c-26.50168,-13.22994 -49.88333,-32.57276 -67.95686,-56.69091l103.67875,2.14745l-35.72189,54.54346zm106.31013,18.7574c-8.43284,0.98316 -16.97387,1.40713 -25.57876,1.23649c-17.97877,-0.37672 -35.58347,-3.33406 -52.36183,-8.57537l42.71946,-65.23085l78.32378,1.6224l-43.10265,70.94732zm40.79698,-9.41151l36.94811,-60.8178l45.41744,0.94115c0.93322,0.08663 1.87165,0.14833 2.80617,0.22315c-22.51322,27.52441 -52.12462,48.08535 -85.17172,59.65351zm84.11338,-89.98037c-34.71542,-3.42464 -67.71821,-16.38942 -95.4345,-37.03962l70.72771,-3.58871l26.38555,40.66246l-1.67875,-0.03413zm26.81305,-16.31854l-35.1716,-54.20087l34.90963,-69.76334c13.5108,39.93658 13.73498,83.64958 0.26198,123.9642z"/>
  <path stroke="null" id="svg_14" fill="#253D4E" d="m872.70763,612.40934c-4.83553,-6.74951 -14.18595,-8.27216 -20.8866,-3.40626l-52.72156,38.2853c-6.70066,4.8659 -8.21779,14.28266 -3.38356,21.0348c2.92478,4.08357 7.50223,6.25597 12.14616,6.25597c3.03426,0 6.09198,-0.92671 8.73914,-2.84839l52.72287,-38.28661c6.70066,-4.8659 8.21648,-14.28135 3.38356,-21.0348z"/>
 </g>
</svg>